<mxfile host="app.diagrams.net" agent="Mozilla/5.0 (Windows NT 10.0; Win64; x64) AppleWebKit/537.36 (KHTML, like Gecko) Chrome/136.0.0.0 Safari/537.36 Edg/136.0.0.0" version="27.0.2">
  <diagram name="Page-1" id="zag9mFoeIa7U68DN8pHp">
    <mxGraphModel dx="3011" dy="1637" grid="1" gridSize="10" guides="1" tooltips="1" connect="1" arrows="1" fold="1" page="0" pageScale="1" pageWidth="850" pageHeight="1100" math="0" shadow="0">
      <root>
        <mxCell id="0" />
        <mxCell id="1" parent="0" />
        <mxCell id="jwKDQQEzBjQrpnpor33--13" value="Analog Motion Transducers" style="ellipse;whiteSpace=wrap;html=1;fillColor=#dae8fc;strokeColor=#6c8ebf;fontStyle=1;fontSize=14;" parent="1" vertex="1">
          <mxGeometry x="950" y="-650" width="200" height="80" as="geometry" />
        </mxCell>
        <mxCell id="jwKDQQEzBjQrpnpor33--14" value="Displacement (Linear/Angular)" style="rounded=1;whiteSpace=wrap;html=1;fillColor=#fff2cc;strokeColor=#d6b656;fontSize=12;" parent="1" vertex="1">
          <mxGeometry x="-820" y="-180" width="180" height="60" as="geometry" />
        </mxCell>
        <mxCell id="jwKDQQEzBjQrpnpor33--15" value="" style="edgeStyle=elbowEdgeStyle;elbow=horizontal;html=1;rounded=0;strokeColor=#000000;" parent="1" source="jwKDQQEzBjQrpnpor33--13" target="jwKDQQEzBjQrpnpor33--14" edge="1">
          <mxGeometry relative="1" as="geometry" />
        </mxCell>
        <mxCell id="jwKDQQEzBjQrpnpor33--16" value="Velocity (Linear/Angular)" style="rounded=1;whiteSpace=wrap;html=1;fillColor=#fff2cc;strokeColor=#d6b656;fontSize=12;" parent="1" vertex="1">
          <mxGeometry x="-20" y="-120" width="180" height="60" as="geometry" />
        </mxCell>
        <mxCell id="jwKDQQEzBjQrpnpor33--17" value="" style="edgeStyle=elbowEdgeStyle;elbow=horizontal;html=1;rounded=0;strokeColor=#000000;" parent="1" source="jwKDQQEzBjQrpnpor33--13" target="jwKDQQEzBjQrpnpor33--16" edge="1">
          <mxGeometry relative="1" as="geometry" />
        </mxCell>
        <mxCell id="jwKDQQEzBjQrpnpor33--18" value="Acceleration" style="rounded=1;whiteSpace=wrap;html=1;fillColor=#fff2cc;strokeColor=#d6b656;fontSize=12;" parent="1" vertex="1">
          <mxGeometry x="400" y="-230" width="120" height="60" as="geometry" />
        </mxCell>
        <mxCell id="jwKDQQEzBjQrpnpor33--19" value="" style="edgeStyle=elbowEdgeStyle;elbow=horizontal;html=1;rounded=0;strokeColor=#000000;" parent="1" source="jwKDQQEzBjQrpnpor33--13" target="jwKDQQEzBjQrpnpor33--18" edge="1">
          <mxGeometry relative="1" as="geometry" />
        </mxCell>
        <mxCell id="jwKDQQEzBjQrpnpor33--20" value="Proximity" style="rounded=1;whiteSpace=wrap;html=1;fillColor=#fff2cc;strokeColor=#d6b656;fontSize=12;" parent="1" vertex="1">
          <mxGeometry x="930" y="-240" width="120" height="60" as="geometry" />
        </mxCell>
        <mxCell id="jwKDQQEzBjQrpnpor33--21" value="" style="edgeStyle=elbowEdgeStyle;elbow=horizontal;html=1;rounded=0;strokeColor=#000000;" parent="1" source="jwKDQQEzBjQrpnpor33--13" target="jwKDQQEzBjQrpnpor33--20" edge="1">
          <mxGeometry relative="1" as="geometry" />
        </mxCell>
        <mxCell id="jwKDQQEzBjQrpnpor33--22" value="Force/Torque" style="rounded=1;whiteSpace=wrap;html=1;fillColor=#fff2cc;strokeColor=#d6b656;fontSize=12;" parent="1" vertex="1">
          <mxGeometry x="1610" y="-230" width="120" height="60" as="geometry" />
        </mxCell>
        <mxCell id="jwKDQQEzBjQrpnpor33--23" value="" style="edgeStyle=elbowEdgeStyle;elbow=horizontal;html=1;rounded=0;strokeColor=#000000;" parent="1" source="jwKDQQEzBjQrpnpor33--13" target="jwKDQQEzBjQrpnpor33--22" edge="1">
          <mxGeometry relative="1" as="geometry" />
        </mxCell>
        <mxCell id="jwKDQQEzBjQrpnpor33--24" value="Working Principles" style="whiteSpace=wrap;html=1;fillColor=#d5e8d4;strokeColor=#82b366;fontSize=11;" parent="1" vertex="1">
          <mxGeometry x="-810" y="120" width="150" height="40" as="geometry" />
        </mxCell>
        <mxCell id="jwKDQQEzBjQrpnpor33--25" value="" style="edgeStyle=elbowEdgeStyle;elbow=vertical;html=1;rounded=0;strokeColor=#000000;" parent="1" source="jwKDQQEzBjQrpnpor33--14" target="jwKDQQEzBjQrpnpor33--24" edge="1">
          <mxGeometry relative="1" as="geometry" />
        </mxCell>
        <mxCell id="jwKDQQEzBjQrpnpor33--26" value="Resistive Change" style="whiteSpace=wrap;html=1;fillColor=#e1d5e7;strokeColor=#9673a6;fontSize=10;" parent="1" vertex="1">
          <mxGeometry x="-1300" y="170" width="120" height="40" as="geometry" />
        </mxCell>
        <mxCell id="jwKDQQEzBjQrpnpor33--27" value="" style="edgeStyle=elbowEdgeStyle;elbow=horizontal;html=1;rounded=0;strokeColor=#000000;" parent="1" source="jwKDQQEzBjQrpnpor33--24" target="jwKDQQEzBjQrpnpor33--26" edge="1">
          <mxGeometry relative="1" as="geometry" />
        </mxCell>
        <mxCell id="jwKDQQEzBjQrpnpor33--122" value="" style="edgeStyle=orthogonalEdgeStyle;rounded=0;orthogonalLoop=1;jettySize=auto;html=1;" parent="1" source="jwKDQQEzBjQrpnpor33--28" target="jwKDQQEzBjQrpnpor33--26" edge="1">
          <mxGeometry relative="1" as="geometry" />
        </mxCell>
        <mxCell id="jwKDQQEzBjQrpnpor33--28" value="Potentiometer (Linear, Rotary, Optical)" style="whiteSpace=wrap;html=1;fillColor=#f8cecc;strokeColor=#b85450;fontSize=9;" parent="1" vertex="1">
          <mxGeometry x="-1320" y="350" width="160" height="50" as="geometry" />
        </mxCell>
        <mxCell id="jwKDQQEzBjQrpnpor33--29" value="" style="edgeStyle=elbowEdgeStyle;elbow=vertical;html=1;rounded=0;strokeColor=#000000;" parent="1" source="jwKDQQEzBjQrpnpor33--26" target="jwKDQQEzBjQrpnpor33--28" edge="1">
          <mxGeometry relative="1" as="geometry" />
        </mxCell>
        <mxCell id="jwKDQQEzBjQrpnpor33--30" value="Linear: Wiper on resistive track, Vout ∝ displacement Rotary: Wiper on circular track, Vout ∝ angle Optical: Light beam alters photoresistive track" style="text;html=1;align=left;verticalAlign=middle;resizable=0;points=[];autosize=1;strokeColor=none;fillColor=none;fontSize=8;" parent="1" vertex="1">
          <mxGeometry x="-1280" y="860" width="200" height="50" as="geometry" />
        </mxCell>
        <mxCell id="jwKDQQEzBjQrpnpor33--31" value="" style="edgeStyle=elbowEdgeStyle;elbow=vertical;html=1;rounded=0;strokeColor=#000000;" parent="1" source="jwKDQQEzBjQrpnpor33--28" target="jwKDQQEzBjQrpnpor33--30" edge="1">
          <mxGeometry relative="1" as="geometry" />
        </mxCell>
        <mxCell id="jwKDQQEzBjQrpnpor33--32" value="Variable Inductance (Mutual)" style="whiteSpace=wrap;html=1;fillColor=#e1d5e7;strokeColor=#9673a6;fontSize=10;" parent="1" vertex="1">
          <mxGeometry x="-830" y="250" width="160" height="40" as="geometry" />
        </mxCell>
        <mxCell id="jwKDQQEzBjQrpnpor33--33" value="" style="edgeStyle=elbowEdgeStyle;elbow=horizontal;html=1;rounded=0;strokeColor=#000000;" parent="1" source="jwKDQQEzBjQrpnpor33--24" target="jwKDQQEzBjQrpnpor33--32" edge="1">
          <mxGeometry relative="1" as="geometry" />
        </mxCell>
        <mxCell id="jwKDQQEzBjQrpnpor33--34" value="LVDT" style="whiteSpace=wrap;html=1;fillColor=#f8cecc;strokeColor=#b85450;fontSize=9;" parent="1" vertex="1">
          <mxGeometry x="-1100" y="590" width="80" height="30" as="geometry" />
        </mxCell>
        <mxCell id="jwKDQQEzBjQrpnpor33--35" value="" style="edgeStyle=elbowEdgeStyle;elbow=vertical;html=1;rounded=0;strokeColor=#000000;" parent="1" source="jwKDQQEzBjQrpnpor33--32" target="jwKDQQEzBjQrpnpor33--34" edge="1">
          <mxGeometry relative="1" as="geometry" />
        </mxCell>
        <mxCell id="jwKDQQEzBjQrpnpor33--36" value="Movable core changes coupling between primary and two opposed secondary coils" style="text;html=1;align=left;verticalAlign=middle;resizable=0;points=[];autosize=1;strokeColor=none;fillColor=none;fontSize=8;" parent="1" vertex="1">
          <mxGeometry x="-1120" y="710" width="120" height="50" as="geometry" />
        </mxCell>
        <mxCell id="jwKDQQEzBjQrpnpor33--37" value="" style="edgeStyle=elbowEdgeStyle;elbow=vertical;html=1;rounded=0;strokeColor=#000000;" parent="1" source="jwKDQQEzBjQrpnpor33--34" target="jwKDQQEzBjQrpnpor33--36" edge="1">
          <mxGeometry relative="1" as="geometry" />
        </mxCell>
        <mxCell id="jwKDQQEzBjQrpnpor33--38" value="RVDT" style="whiteSpace=wrap;html=1;fillColor=#f8cecc;strokeColor=#b85450;fontSize=9;" parent="1" vertex="1">
          <mxGeometry x="-740" y="500" width="80" height="30" as="geometry" />
        </mxCell>
        <mxCell id="jwKDQQEzBjQrpnpor33--39" value="" style="edgeStyle=elbowEdgeStyle;elbow=vertical;html=1;rounded=0;strokeColor=#000000;" parent="1" source="jwKDQQEzBjQrpnpor33--32" target="jwKDQQEzBjQrpnpor33--38" edge="1">
          <mxGeometry relative="1" as="geometry" />
        </mxCell>
        <mxCell id="jwKDQQEzBjQrpnpor33--40" value="Rotating core changes coupling (similar to LVDT)" style="text;html=1;align=left;verticalAlign=middle;resizable=0;points=[];autosize=1;strokeColor=none;fillColor=none;fontSize=8;" parent="1" vertex="1">
          <mxGeometry x="-760" y="680" width="120" height="40" as="geometry" />
        </mxCell>
        <mxCell id="jwKDQQEzBjQrpnpor33--41" value="" style="edgeStyle=elbowEdgeStyle;elbow=vertical;html=1;rounded=0;strokeColor=#000000;" parent="1" source="jwKDQQEzBjQrpnpor33--38" target="jwKDQQEzBjQrpnpor33--40" edge="1">
          <mxGeometry relative="1" as="geometry" />
        </mxCell>
        <mxCell id="jwKDQQEzBjQrpnpor33--42" value="Resolver" style="whiteSpace=wrap;html=1;fillColor=#f8cecc;strokeColor=#b85450;fontSize=9;" parent="1" vertex="1">
          <mxGeometry x="-500" y="375" width="80" height="30" as="geometry" />
        </mxCell>
        <mxCell id="jwKDQQEzBjQrpnpor33--43" value="" style="edgeStyle=elbowEdgeStyle;elbow=vertical;html=1;rounded=0;strokeColor=#000000;" parent="1" source="jwKDQQEzBjQrpnpor33--32" target="jwKDQQEzBjQrpnpor33--42" edge="1">
          <mxGeometry relative="1" as="geometry">
            <mxPoint x="-200" y="380" as="targetPoint" />
          </mxGeometry>
        </mxCell>
        <mxCell id="jwKDQQEzBjQrpnpor33--44" value="Rotating primary, two fixed 90° secondaries; Vout1 ∝ cos(θ), Vout2 ∝ sin(θ)" style="text;html=1;align=left;verticalAlign=middle;resizable=0;points=[];autosize=1;strokeColor=none;fillColor=none;fontSize=8;" parent="1" vertex="1">
          <mxGeometry x="-530" y="650" width="140" height="50" as="geometry" />
        </mxCell>
        <mxCell id="jwKDQQEzBjQrpnpor33--45" value="" style="edgeStyle=elbowEdgeStyle;elbow=vertical;html=1;rounded=0;strokeColor=#000000;" parent="1" source="jwKDQQEzBjQrpnpor33--42" target="jwKDQQEzBjQrpnpor33--44" edge="1">
          <mxGeometry relative="1" as="geometry" />
        </mxCell>
        <mxCell id="jwKDQQEzBjQrpnpor33--46" value="Variable Capacitance" style="whiteSpace=wrap;html=1;fillColor=#e1d5e7;strokeColor=#9673a6;fontSize=10;" parent="1" vertex="1">
          <mxGeometry x="-440" y="110" width="140" height="40" as="geometry" />
        </mxCell>
        <mxCell id="jwKDQQEzBjQrpnpor33--47" value="" style="edgeStyle=elbowEdgeStyle;elbow=horizontal;html=1;rounded=0;strokeColor=#000000;" parent="1" source="jwKDQQEzBjQrpnpor33--24" target="jwKDQQEzBjQrpnpor33--46" edge="1">
          <mxGeometry relative="1" as="geometry" />
        </mxCell>
        <mxCell id="jwKDQQEzBjQrpnpor33--48" value="Capacitive Displacement/Rotation Sensor" style="whiteSpace=wrap;html=1;fillColor=#f8cecc;strokeColor=#b85450;fontSize=9;" parent="1" vertex="1">
          <mxGeometry x="-620" y="740" width="160" height="50" as="geometry" />
        </mxCell>
        <mxCell id="jwKDQQEzBjQrpnpor33--49" value="" style="edgeStyle=elbowEdgeStyle;elbow=vertical;html=1;rounded=0;strokeColor=#000000;" parent="1" source="jwKDQQEzBjQrpnpor33--46" target="jwKDQQEzBjQrpnpor33--48" edge="1">
          <mxGeometry relative="1" as="geometry" />
        </mxCell>
        <mxCell id="jwKDQQEzBjQrpnpor33--50" value="Change in gap (x), area (A), or dielectric (k) alters capacitance" style="text;html=1;align=left;verticalAlign=middle;resizable=0;points=[];autosize=1;strokeColor=none;fillColor=none;fontSize=8;" parent="1" vertex="1">
          <mxGeometry x="-630" y="1010" width="180" height="40" as="geometry" />
        </mxCell>
        <mxCell id="jwKDQQEzBjQrpnpor33--51" value="" style="edgeStyle=elbowEdgeStyle;elbow=vertical;html=1;rounded=0;strokeColor=#000000;" parent="1" source="jwKDQQEzBjQrpnpor33--48" target="jwKDQQEzBjQrpnpor33--50" edge="1">
          <mxGeometry relative="1" as="geometry" />
        </mxCell>
        <mxCell id="jwKDQQEzBjQrpnpor33--52" value="Working Principles" style="whiteSpace=wrap;html=1;fillColor=#d5e8d4;strokeColor=#82b366;fontSize=11;" parent="1" vertex="1">
          <mxGeometry x="-5" y="30" width="150" height="40" as="geometry" />
        </mxCell>
        <mxCell id="jwKDQQEzBjQrpnpor33--53" value="" style="edgeStyle=elbowEdgeStyle;elbow=vertical;html=1;rounded=0;strokeColor=#000000;" parent="1" source="jwKDQQEzBjQrpnpor33--16" target="jwKDQQEzBjQrpnpor33--52" edge="1">
          <mxGeometry relative="1" as="geometry" />
        </mxCell>
        <mxCell id="jwKDQQEzBjQrpnpor33--54" value="Electromagnetic Induction (PM)" style="whiteSpace=wrap;html=1;fillColor=#e1d5e7;strokeColor=#9673a6;fontSize=10;" parent="1" vertex="1">
          <mxGeometry x="-260" y="110" width="180" height="40" as="geometry" />
        </mxCell>
        <mxCell id="jwKDQQEzBjQrpnpor33--55" value="" style="edgeStyle=elbowEdgeStyle;elbow=horizontal;html=1;rounded=0;strokeColor=#000000;" parent="1" source="jwKDQQEzBjQrpnpor33--52" target="jwKDQQEzBjQrpnpor33--54" edge="1">
          <mxGeometry relative="1" as="geometry" />
        </mxCell>
        <mxCell id="jwKDQQEzBjQrpnpor33--56" value="DC Tachometer (Rectilinear/Rotary)" style="whiteSpace=wrap;html=1;fillColor=#f8cecc;strokeColor=#b85450;fontSize=9;" parent="1" vertex="1">
          <mxGeometry x="-270" y="320" width="200" height="40" as="geometry" />
        </mxCell>
        <mxCell id="jwKDQQEzBjQrpnpor33--57" value="" style="edgeStyle=elbowEdgeStyle;elbow=vertical;html=1;rounded=0;strokeColor=#000000;" parent="1" source="jwKDQQEzBjQrpnpor33--54" target="jwKDQQEzBjQrpnpor33--56" edge="1">
          <mxGeometry relative="1" as="geometry" />
        </mxCell>
        <mxCell id="jwKDQQEzBjQrpnpor33--58" value="Conductor moves in magnetic field (or vice-versa), Vout ∝ velocity" style="text;html=1;align=left;verticalAlign=middle;resizable=0;points=[];autosize=1;strokeColor=none;fillColor=none;fontSize=8;" parent="1" vertex="1">
          <mxGeometry x="-280" y="500" width="220" height="40" as="geometry" />
        </mxCell>
        <mxCell id="jwKDQQEzBjQrpnpor33--59" value="" style="edgeStyle=elbowEdgeStyle;elbow=vertical;html=1;rounded=0;strokeColor=#000000;" parent="1" source="jwKDQQEzBjQrpnpor33--56" target="jwKDQQEzBjQrpnpor33--58" edge="1">
          <mxGeometry relative="1" as="geometry" />
        </mxCell>
        <mxCell id="jwKDQQEzBjQrpnpor33--60" value="Derived from Displacement" style="whiteSpace=wrap;html=1;fillColor=#e1d5e7;strokeColor=#9673a6;fontSize=10;" parent="1" vertex="1">
          <mxGeometry x="50" y="150" width="160" height="40" as="geometry" />
        </mxCell>
        <mxCell id="jwKDQQEzBjQrpnpor33--61" value="" style="edgeStyle=elbowEdgeStyle;elbow=horizontal;html=1;rounded=0;strokeColor=#000000;" parent="1" source="jwKDQQEzBjQrpnpor33--52" target="jwKDQQEzBjQrpnpor33--60" edge="1">
          <mxGeometry relative="1" as="geometry" />
        </mxCell>
        <mxCell id="jwKDQQEzBjQrpnpor33--62" value="Differentiate displacement signal (e.g., from potentiometer, LVDT, capacitive sensor)" style="text;html=1;align=left;verticalAlign=middle;resizable=0;points=[];autosize=1;strokeColor=none;fillColor=none;fontSize=8;" parent="1" vertex="1">
          <mxGeometry x="30" y="320" width="200" height="60" as="geometry" />
        </mxCell>
        <mxCell id="jwKDQQEzBjQrpnpor33--63" value="" style="edgeStyle=elbowEdgeStyle;elbow=vertical;html=1;rounded=0;strokeColor=#000000;" parent="1" source="jwKDQQEzBjQrpnpor33--60" target="jwKDQQEzBjQrpnpor33--62" edge="1">
          <mxGeometry relative="1" as="geometry" />
        </mxCell>
        <mxCell id="jwKDQQEzBjQrpnpor33--64" value="Working Principles" style="whiteSpace=wrap;html=1;fillColor=#d5e8d4;strokeColor=#82b366;fontSize=11;" parent="1" vertex="1">
          <mxGeometry x="385" y="-20" width="150" height="40" as="geometry" />
        </mxCell>
        <mxCell id="jwKDQQEzBjQrpnpor33--65" value="" style="edgeStyle=elbowEdgeStyle;elbow=vertical;html=1;rounded=0;strokeColor=#000000;" parent="1" source="jwKDQQEzBjQrpnpor33--18" target="jwKDQQEzBjQrpnpor33--64" edge="1">
          <mxGeometry relative="1" as="geometry" />
        </mxCell>
        <mxCell id="jwKDQQEzBjQrpnpor33--66" value="Piezoelectric Effect" style="whiteSpace=wrap;html=1;fillColor=#e1d5e7;strokeColor=#9673a6;fontSize=10;" parent="1" vertex="1">
          <mxGeometry x="400" y="100" width="120" height="40" as="geometry" />
        </mxCell>
        <mxCell id="jwKDQQEzBjQrpnpor33--67" value="" style="edgeStyle=elbowEdgeStyle;elbow=horizontal;html=1;rounded=0;strokeColor=#000000;" parent="1" source="jwKDQQEzBjQrpnpor33--64" target="jwKDQQEzBjQrpnpor33--66" edge="1">
          <mxGeometry relative="1" as="geometry" />
        </mxCell>
        <mxCell id="jwKDQQEzBjQrpnpor33--68" value="Piezoelectric Accelerometer" style="whiteSpace=wrap;html=1;fillColor=#f8cecc;strokeColor=#b85450;fontSize=9;" parent="1" vertex="1">
          <mxGeometry x="380" y="230" width="160" height="40" as="geometry" />
        </mxCell>
        <mxCell id="jwKDQQEzBjQrpnpor33--69" value="" style="edgeStyle=elbowEdgeStyle;elbow=vertical;html=1;rounded=0;strokeColor=#000000;" parent="1" source="jwKDQQEzBjQrpnpor33--66" target="jwKDQQEzBjQrpnpor33--68" edge="1">
          <mxGeometry relative="1" as="geometry" />
        </mxCell>
        <mxCell id="jwKDQQEzBjQrpnpor33--70" value="Inertial mass stresses piezoelectric crystal, Vout ∝ acceleration" style="text;html=1;align=left;verticalAlign=middle;resizable=0;points=[];autosize=1;strokeColor=none;fillColor=none;fontSize=8;" parent="1" vertex="1">
          <mxGeometry x="370" y="410" width="180" height="40" as="geometry" />
        </mxCell>
        <mxCell id="jwKDQQEzBjQrpnpor33--71" value="" style="edgeStyle=elbowEdgeStyle;elbow=vertical;html=1;rounded=0;strokeColor=#000000;" parent="1" source="jwKDQQEzBjQrpnpor33--68" target="jwKDQQEzBjQrpnpor33--70" edge="1">
          <mxGeometry relative="1" as="geometry" />
        </mxCell>
        <mxCell id="jwKDQQEzBjQrpnpor33--72" value="Strain Measurement" style="whiteSpace=wrap;html=1;fillColor=#e1d5e7;strokeColor=#9673a6;fontSize=10;" parent="1" vertex="1">
          <mxGeometry x="640" y="-20" width="120" height="40" as="geometry" />
        </mxCell>
        <mxCell id="jwKDQQEzBjQrpnpor33--73" value="" style="edgeStyle=elbowEdgeStyle;elbow=horizontal;html=1;rounded=0;strokeColor=#000000;" parent="1" source="jwKDQQEzBjQrpnpor33--64" target="jwKDQQEzBjQrpnpor33--72" edge="1">
          <mxGeometry relative="1" as="geometry" />
        </mxCell>
        <mxCell id="jwKDQQEzBjQrpnpor33--74" value="Strain Gauge Accelerometer" style="whiteSpace=wrap;html=1;fillColor=#f8cecc;strokeColor=#b85450;fontSize=9;" parent="1" vertex="1">
          <mxGeometry x="620" y="230" width="160" height="40" as="geometry" />
        </mxCell>
        <mxCell id="jwKDQQEzBjQrpnpor33--75" value="" style="edgeStyle=elbowEdgeStyle;elbow=vertical;html=1;rounded=0;strokeColor=#000000;" parent="1" source="jwKDQQEzBjQrpnpor33--72" target="jwKDQQEzBjQrpnpor33--74" edge="1">
          <mxGeometry relative="1" as="geometry" />
        </mxCell>
        <mxCell id="jwKDQQEzBjQrpnpor33--76" value="Inertial mass strains a beam with strain gauges, ΔR ∝ acceleration" style="text;html=1;align=left;verticalAlign=middle;resizable=0;points=[];autosize=1;strokeColor=none;fillColor=none;fontSize=8;" parent="1" vertex="1">
          <mxGeometry x="610" y="490" width="180" height="50" as="geometry" />
        </mxCell>
        <mxCell id="jwKDQQEzBjQrpnpor33--77" value="" style="edgeStyle=elbowEdgeStyle;elbow=vertical;html=1;rounded=0;strokeColor=#000000;" parent="1" source="jwKDQQEzBjQrpnpor33--74" target="jwKDQQEzBjQrpnpor33--76" edge="1">
          <mxGeometry relative="1" as="geometry" />
        </mxCell>
        <mxCell id="jwKDQQEzBjQrpnpor33--78" value="Working Principles" style="whiteSpace=wrap;html=1;fillColor=#d5e8d4;strokeColor=#82b366;fontSize=11;" parent="1" vertex="1">
          <mxGeometry x="915" y="-50" width="150" height="40" as="geometry" />
        </mxCell>
        <mxCell id="jwKDQQEzBjQrpnpor33--79" value="" style="edgeStyle=elbowEdgeStyle;elbow=vertical;html=1;rounded=0;strokeColor=#000000;" parent="1" source="jwKDQQEzBjQrpnpor33--20" target="jwKDQQEzBjQrpnpor33--78" edge="1">
          <mxGeometry relative="1" as="geometry" />
        </mxCell>
        <mxCell id="jwKDQQEzBjQrpnpor33--80" value="Variable Inductance (Mutual)" style="whiteSpace=wrap;html=1;fillColor=#e1d5e7;strokeColor=#9673a6;fontSize=10;" parent="1" vertex="1">
          <mxGeometry x="1150" y="-50" width="160" height="40" as="geometry" />
        </mxCell>
        <mxCell id="jwKDQQEzBjQrpnpor33--81" value="" style="edgeStyle=elbowEdgeStyle;elbow=horizontal;html=1;rounded=0;strokeColor=#000000;" parent="1" source="jwKDQQEzBjQrpnpor33--78" target="jwKDQQEzBjQrpnpor33--80" edge="1">
          <mxGeometry relative="1" as="geometry" />
        </mxCell>
        <mxCell id="jwKDQQEzBjQrpnpor33--82" value="Mutual-Induction Proximity Sensor" style="whiteSpace=wrap;html=1;fillColor=#f8cecc;strokeColor=#b85450;fontSize=9;" parent="1" vertex="1">
          <mxGeometry x="990" y="410" width="200" height="40" as="geometry" />
        </mxCell>
        <mxCell id="jwKDQQEzBjQrpnpor33--83" value="" style="edgeStyle=elbowEdgeStyle;elbow=vertical;html=1;rounded=0;strokeColor=#000000;" parent="1" source="jwKDQQEzBjQrpnpor33--80" target="jwKDQQEzBjQrpnpor33--82" edge="1">
          <mxGeometry relative="1" as="geometry" />
        </mxCell>
        <mxCell id="jwKDQQEzBjQrpnpor33--84" value="Ferromagnetic target alters mutual inductance between coils" style="text;html=1;align=left;verticalAlign=middle;resizable=0;points=[];autosize=1;strokeColor=none;fillColor=none;fontSize=8;" parent="1" vertex="1">
          <mxGeometry x="970" y="610" width="220" height="40" as="geometry" />
        </mxCell>
        <mxCell id="jwKDQQEzBjQrpnpor33--85" value="" style="edgeStyle=elbowEdgeStyle;elbow=vertical;html=1;rounded=0;strokeColor=#000000;" parent="1" source="jwKDQQEzBjQrpnpor33--82" target="jwKDQQEzBjQrpnpor33--84" edge="1">
          <mxGeometry relative="1" as="geometry" />
        </mxCell>
        <mxCell id="jwKDQQEzBjQrpnpor33--86" value="Variable Capacitance" style="whiteSpace=wrap;html=1;fillColor=#e1d5e7;strokeColor=#9673a6;fontSize=10;" parent="1" vertex="1">
          <mxGeometry x="820" y="70" width="140" height="40" as="geometry" />
        </mxCell>
        <mxCell id="jwKDQQEzBjQrpnpor33--87" value="" style="edgeStyle=elbowEdgeStyle;elbow=horizontal;html=1;rounded=0;strokeColor=#000000;" parent="1" source="jwKDQQEzBjQrpnpor33--78" target="jwKDQQEzBjQrpnpor33--86" edge="1">
          <mxGeometry relative="1" as="geometry" />
        </mxCell>
        <mxCell id="jwKDQQEzBjQrpnpor33--88" value="Capacitive Proximity Sensor" style="whiteSpace=wrap;html=1;fillColor=#f8cecc;strokeColor=#b85450;fontSize=9;" parent="1" vertex="1">
          <mxGeometry x="800" y="350" width="180" height="40" as="geometry" />
        </mxCell>
        <mxCell id="jwKDQQEzBjQrpnpor33--89" value="" style="edgeStyle=elbowEdgeStyle;elbow=vertical;html=1;rounded=0;strokeColor=#000000;" parent="1" source="jwKDQQEzBjQrpnpor33--86" target="jwKDQQEzBjQrpnpor33--88" edge="1">
          <mxGeometry relative="1" as="geometry" />
        </mxCell>
        <mxCell id="jwKDQQEzBjQrpnpor33--90" value="Target alters capacitance (dielectric or plate proximity)" style="text;html=1;align=left;verticalAlign=middle;resizable=0;points=[];autosize=1;strokeColor=none;fillColor=none;fontSize=8;" parent="1" vertex="1">
          <mxGeometry x="790" y="690" width="200" height="40" as="geometry" />
        </mxCell>
        <mxCell id="jwKDQQEzBjQrpnpor33--91" value="" style="edgeStyle=elbowEdgeStyle;elbow=vertical;html=1;rounded=0;strokeColor=#000000;" parent="1" source="jwKDQQEzBjQrpnpor33--88" target="jwKDQQEzBjQrpnpor33--90" edge="1">
          <mxGeometry relative="1" as="geometry" />
        </mxCell>
        <mxCell id="jwKDQQEzBjQrpnpor33--92" value="Working Principles" style="whiteSpace=wrap;html=1;fillColor=#d5e8d4;strokeColor=#82b366;fontSize=11;" parent="1" vertex="1">
          <mxGeometry x="1595" y="10" width="150" height="40" as="geometry" />
        </mxCell>
        <mxCell id="jwKDQQEzBjQrpnpor33--93" value="" style="edgeStyle=elbowEdgeStyle;elbow=vertical;html=1;rounded=0;strokeColor=#000000;" parent="1" source="jwKDQQEzBjQrpnpor33--22" target="jwKDQQEzBjQrpnpor33--92" edge="1">
          <mxGeometry relative="1" as="geometry" />
        </mxCell>
        <mxCell id="jwKDQQEzBjQrpnpor33--94" value="Strain Measurement (Piezoresistive)" style="whiteSpace=wrap;html=1;fillColor=#e1d5e7;strokeColor=#9673a6;fontSize=10;" parent="1" vertex="1">
          <mxGeometry x="1870" y="180" width="180" height="40" as="geometry" />
        </mxCell>
        <mxCell id="jwKDQQEzBjQrpnpor33--95" value="" style="edgeStyle=elbowEdgeStyle;elbow=horizontal;html=1;rounded=0;strokeColor=#000000;" parent="1" source="jwKDQQEzBjQrpnpor33--92" target="jwKDQQEzBjQrpnpor33--94" edge="1">
          <mxGeometry relative="1" as="geometry" />
        </mxCell>
        <mxCell id="jwKDQQEzBjQrpnpor33--96" value="Strain Gauge (for Force/Torque)" style="whiteSpace=wrap;html=1;fillColor=#f8cecc;strokeColor=#b85450;fontSize=9;" parent="1" vertex="1">
          <mxGeometry x="1720" y="375" width="220" height="40" as="geometry" />
        </mxCell>
        <mxCell id="jwKDQQEzBjQrpnpor33--97" value="" style="edgeStyle=elbowEdgeStyle;elbow=vertical;html=1;rounded=0;strokeColor=#000000;" parent="1" source="jwKDQQEzBjQrpnpor33--94" target="jwKDQQEzBjQrpnpor33--96" edge="1">
          <mxGeometry relative="1" as="geometry" />
        </mxCell>
        <mxCell id="jwKDQQEzBjQrpnpor33--98" value="Force/Torque deforms element, strain gauges measure deformation (ΔR)" style="text;html=1;align=left;verticalAlign=middle;resizable=0;points=[];autosize=1;strokeColor=none;fillColor=none;fontSize=8;" parent="1" vertex="1">
          <mxGeometry x="1680" y="670" width="240" height="50" as="geometry" />
        </mxCell>
        <mxCell id="jwKDQQEzBjQrpnpor33--99" value="" style="edgeStyle=elbowEdgeStyle;elbow=vertical;html=1;rounded=0;strokeColor=#000000;" parent="1" source="jwKDQQEzBjQrpnpor33--96" target="jwKDQQEzBjQrpnpor33--98" edge="1">
          <mxGeometry relative="1" as="geometry" />
        </mxCell>
        <mxCell id="jwKDQQEzBjQrpnpor33--100" value="Piezoelectric Effect" style="whiteSpace=wrap;html=1;fillColor=#e1d5e7;strokeColor=#9673a6;fontSize=10;" parent="1" vertex="1">
          <mxGeometry x="1350" y="130" width="120" height="40" as="geometry" />
        </mxCell>
        <mxCell id="jwKDQQEzBjQrpnpor33--101" value="" style="edgeStyle=elbowEdgeStyle;elbow=horizontal;html=1;rounded=0;strokeColor=#000000;" parent="1" source="jwKDQQEzBjQrpnpor33--92" target="jwKDQQEzBjQrpnpor33--100" edge="1">
          <mxGeometry relative="1" as="geometry" />
        </mxCell>
        <mxCell id="jwKDQQEzBjQrpnpor33--102" value="Piezoelectric Force/Torque Sensor" style="whiteSpace=wrap;html=1;fillColor=#f8cecc;strokeColor=#b85450;fontSize=9;" parent="1" vertex="1">
          <mxGeometry x="1330" y="280" width="160" height="40" as="geometry" />
        </mxCell>
        <mxCell id="jwKDQQEzBjQrpnpor33--103" value="" style="edgeStyle=elbowEdgeStyle;elbow=vertical;html=1;rounded=0;strokeColor=#000000;" parent="1" source="jwKDQQEzBjQrpnpor33--100" target="jwKDQQEzBjQrpnpor33--102" edge="1">
          <mxGeometry relative="1" as="geometry" />
        </mxCell>
        <mxCell id="jwKDQQEzBjQrpnpor33--104" value="Force/Torque stresses piezoelectric crystal, Vout ∝ force/torque" style="text;html=1;align=left;verticalAlign=middle;resizable=0;points=[];autosize=1;strokeColor=none;fillColor=none;fontSize=8;" parent="1" vertex="1">
          <mxGeometry x="1320" y="490" width="180" height="50" as="geometry" />
        </mxCell>
        <mxCell id="jwKDQQEzBjQrpnpor33--105" value="" style="edgeStyle=elbowEdgeStyle;elbow=vertical;html=1;rounded=0;strokeColor=#000000;" parent="1" source="jwKDQQEzBjQrpnpor33--102" target="jwKDQQEzBjQrpnpor33--104" edge="1">
          <mxGeometry relative="1" as="geometry" />
        </mxCell>
        <mxCell id="jwKDQQEzBjQrpnpor33--106" value="Analog Motion Transducers" style="ellipse;whiteSpace=wrap;html=1;fillColor=#dae8fc;strokeColor=#6c8ebf;fontStyle=1;fontSize=14;" parent="1" vertex="1">
          <mxGeometry x="-160" y="1410" width="200" height="80" as="geometry" />
        </mxCell>
        <mxCell id="jwKDQQEzBjQrpnpor33--107" value="Displacement (Linear/Angular)" style="rounded=1;whiteSpace=wrap;html=1;fillColor=#fff2cc;strokeColor=#d6b656;fontSize=13;" parent="1" vertex="1">
          <mxGeometry x="130" y="1060" width="100" height="40" as="geometry" />
        </mxCell>
        <mxCell id="jwKDQQEzBjQrpnpor33--108" value="Velocity (Linear/Angular)" style="rounded=1;whiteSpace=wrap;html=1;fillColor=#fff2cc;strokeColor=#d6b656;fontSize=13;" parent="1" vertex="1">
          <mxGeometry x="130" y="1290" width="110" height="40" as="geometry" />
        </mxCell>
        <mxCell id="jwKDQQEzBjQrpnpor33--109" value="Acceleration" style="rounded=1;whiteSpace=wrap;html=1;fillColor=#fff2cc;strokeColor=#d6b656;fontSize=13;" parent="1" vertex="1">
          <mxGeometry x="130" y="1710" width="80" height="40" as="geometry" />
        </mxCell>
        <mxCell id="jwKDQQEzBjQrpnpor33--111" value="Proximity" style="rounded=1;whiteSpace=wrap;html=1;fillColor=#fff2cc;strokeColor=#d6b656;fontSize=13;" parent="1" vertex="1">
          <mxGeometry x="130" y="1430" width="60" height="40" as="geometry" />
        </mxCell>
        <mxCell id="jwKDQQEzBjQrpnpor33--112" value="Force/Torque" style="rounded=1;whiteSpace=wrap;html=1;fillColor=#fff2cc;strokeColor=#d6b656;fontSize=13;" parent="1" vertex="1">
          <mxGeometry x="130" y="1570" width="80" height="40" as="geometry" />
        </mxCell>
        <mxCell id="duwEQedwvxj-QTBNqmye-60" style="edgeStyle=orthogonalEdgeStyle;rounded=0;orthogonalLoop=1;jettySize=auto;html=1;entryX=0;entryY=0.5;entryDx=0;entryDy=0;" edge="1" parent="1" source="jwKDQQEzBjQrpnpor33--131" target="V3AHljOZftXMfCnjsO7J-3">
          <mxGeometry relative="1" as="geometry" />
        </mxCell>
        <mxCell id="jwKDQQEzBjQrpnpor33--131" value="Resistive Change" style="whiteSpace=wrap;html=1;fillColor=#e1d5e7;strokeColor=#9673a6;fontSize=13;" parent="1" vertex="1">
          <mxGeometry x="265" y="940" width="115" height="40" as="geometry" />
        </mxCell>
        <mxCell id="jwKDQQEzBjQrpnpor33--132" value="Variable Inductance (Mutual)" style="whiteSpace=wrap;html=1;fillColor=#e1d5e7;strokeColor=#9673a6;fontSize=13;" parent="1" vertex="1">
          <mxGeometry x="260" y="1060" width="130" height="40" as="geometry" />
        </mxCell>
        <mxCell id="duwEQedwvxj-QTBNqmye-65" style="edgeStyle=orthogonalEdgeStyle;rounded=0;orthogonalLoop=1;jettySize=auto;html=1;entryX=0;entryY=0.5;entryDx=0;entryDy=0;" edge="1" parent="1" source="jwKDQQEzBjQrpnpor33--133" target="V3AHljOZftXMfCnjsO7J-7">
          <mxGeometry relative="1" as="geometry" />
        </mxCell>
        <mxCell id="jwKDQQEzBjQrpnpor33--133" value="Variable Capacitance" style="whiteSpace=wrap;html=1;fillColor=#e1d5e7;strokeColor=#9673a6;fontSize=13;" parent="1" vertex="1">
          <mxGeometry x="265" y="1180" width="135" height="40" as="geometry" />
        </mxCell>
        <mxCell id="duwEQedwvxj-QTBNqmye-61" style="edgeStyle=orthogonalEdgeStyle;rounded=0;orthogonalLoop=1;jettySize=auto;html=1;entryX=0;entryY=0.5;entryDx=0;entryDy=0;" edge="1" parent="1" source="V3AHljOZftXMfCnjsO7J-3" target="V3AHljOZftXMfCnjsO7J-9">
          <mxGeometry relative="1" as="geometry" />
        </mxCell>
        <mxCell id="V3AHljOZftXMfCnjsO7J-3" value="Potentiometer (Linear, Rotary, Optical)" style="whiteSpace=wrap;html=1;fillColor=#f8cecc;strokeColor=#b85450;fontSize=13;" parent="1" vertex="1">
          <mxGeometry x="410" y="940" width="140" height="40" as="geometry" />
        </mxCell>
        <mxCell id="duwEQedwvxj-QTBNqmye-62" style="edgeStyle=orthogonalEdgeStyle;rounded=0;orthogonalLoop=1;jettySize=auto;html=1;entryX=0;entryY=0.5;entryDx=0;entryDy=0;" edge="1" parent="1" source="V3AHljOZftXMfCnjsO7J-4" target="V3AHljOZftXMfCnjsO7J-10">
          <mxGeometry relative="1" as="geometry" />
        </mxCell>
        <mxCell id="V3AHljOZftXMfCnjsO7J-4" value="LVDT" style="whiteSpace=wrap;html=1;fillColor=#f8cecc;strokeColor=#b85450;fontSize=13;" parent="1" vertex="1">
          <mxGeometry x="420" y="1000" width="40" height="40" as="geometry" />
        </mxCell>
        <mxCell id="duwEQedwvxj-QTBNqmye-63" style="edgeStyle=orthogonalEdgeStyle;rounded=0;orthogonalLoop=1;jettySize=auto;html=1;entryX=0;entryY=0.5;entryDx=0;entryDy=0;" edge="1" parent="1" source="V3AHljOZftXMfCnjsO7J-5" target="V3AHljOZftXMfCnjsO7J-11">
          <mxGeometry relative="1" as="geometry">
            <mxPoint x="680" y="1090" as="targetPoint" />
          </mxGeometry>
        </mxCell>
        <mxCell id="V3AHljOZftXMfCnjsO7J-5" value="RVDT" style="whiteSpace=wrap;html=1;fillColor=#f8cecc;strokeColor=#b85450;fontSize=13;" parent="1" vertex="1">
          <mxGeometry x="420" y="1060" width="40" height="40" as="geometry" />
        </mxCell>
        <mxCell id="duwEQedwvxj-QTBNqmye-64" style="edgeStyle=orthogonalEdgeStyle;rounded=0;orthogonalLoop=1;jettySize=auto;html=1;" edge="1" parent="1" source="V3AHljOZftXMfCnjsO7J-6" target="V3AHljOZftXMfCnjsO7J-12">
          <mxGeometry relative="1" as="geometry" />
        </mxCell>
        <mxCell id="V3AHljOZftXMfCnjsO7J-6" value="Resolver" style="whiteSpace=wrap;html=1;fillColor=#f8cecc;strokeColor=#b85450;fontSize=13;" parent="1" vertex="1">
          <mxGeometry x="420" y="1120" width="60" height="40" as="geometry" />
        </mxCell>
        <mxCell id="V3AHljOZftXMfCnjsO7J-7" value="Capacitive Displacement/Rotation Sensor" style="whiteSpace=wrap;html=1;fillColor=#f8cecc;strokeColor=#b85450;fontSize=13;" parent="1" vertex="1">
          <mxGeometry x="430" y="1180" width="250" height="40" as="geometry" />
        </mxCell>
        <mxCell id="V3AHljOZftXMfCnjsO7J-9" value="&lt;span style=&quot;text-wrap-mode: nowrap;&quot;&gt;Linear: Wiper on resistive track&amp;nbsp;&lt;/span&gt;&lt;div&gt;&lt;span style=&quot;text-wrap-mode: nowrap;&quot;&gt;Vout ∝ displacement Rotary: Wiper on circular track&amp;nbsp;&lt;/span&gt;&lt;/div&gt;&lt;div&gt;&lt;span style=&quot;text-wrap-mode: nowrap;&quot;&gt;Vout ∝ angle Optical: Light beam alters photoresistive track&lt;/span&gt;&lt;/div&gt;" style="text;html=1;align=left;verticalAlign=middle;whiteSpace=wrap;rounded=0;fontSize=13;" parent="1" vertex="1">
          <mxGeometry x="580" y="940" width="220" height="40" as="geometry" />
        </mxCell>
        <mxCell id="V3AHljOZftXMfCnjsO7J-10" value="&lt;span style=&quot;text-wrap-mode: nowrap;&quot;&gt;Movable core changes coupling between&amp;nbsp;&lt;/span&gt;&lt;span style=&quot;text-wrap-mode: nowrap; background-color: transparent; color: light-dark(rgb(0, 0, 0), rgb(255, 255, 255));&quot;&gt;primary&amp;nbsp;&lt;/span&gt;&lt;div&gt;&lt;span style=&quot;text-wrap-mode: nowrap; background-color: transparent; color: light-dark(rgb(0, 0, 0), rgb(255, 255, 255));&quot;&gt;and two opposed secondary coils&lt;/span&gt;&lt;/div&gt;" style="text;html=1;align=left;verticalAlign=middle;whiteSpace=wrap;rounded=0;fontSize=13;" parent="1" vertex="1">
          <mxGeometry x="515" y="1000" width="180" height="40" as="geometry" />
        </mxCell>
        <mxCell id="V3AHljOZftXMfCnjsO7J-11" value="&lt;span style=&quot;text-align: left; text-wrap-mode: nowrap;&quot;&gt;Rotating core changes coupling (similar to LVDT)&lt;/span&gt;" style="text;html=1;align=center;verticalAlign=middle;whiteSpace=wrap;rounded=0;fontSize=13;" parent="1" vertex="1">
          <mxGeometry x="510" y="1060" width="290" height="40" as="geometry" />
        </mxCell>
        <mxCell id="V3AHljOZftXMfCnjsO7J-12" value="&lt;span style=&quot;text-wrap-mode: nowrap;&quot;&gt;Rotating primary, two fixed 90° secondaries;&lt;/span&gt;&lt;div&gt;&lt;span style=&quot;text-wrap-mode: nowrap;&quot;&gt;&amp;nbsp;Vout1 ∝ cos(θ), Vout2 ∝ sin(θ)&lt;/span&gt;&lt;/div&gt;" style="text;html=1;align=left;verticalAlign=middle;whiteSpace=wrap;rounded=0;fontSize=13;" parent="1" vertex="1">
          <mxGeometry x="510" y="1120" width="160" height="40" as="geometry" />
        </mxCell>
        <mxCell id="duwEQedwvxj-QTBNqmye-1" value="Change in gap (x), area (A), or dielectric (k) alters capacitance" style="text;html=1;align=left;verticalAlign=middle;resizable=0;points=[];autosize=1;strokeColor=none;fillColor=none;fontSize=13;" vertex="1" parent="1">
          <mxGeometry x="710" y="1185" width="380" height="30" as="geometry" />
        </mxCell>
        <mxCell id="duwEQedwvxj-QTBNqmye-3" value="Electromagnetic Induction (PM)" style="whiteSpace=wrap;html=1;fillColor=#e1d5e7;strokeColor=#9673a6;fontSize=13;" vertex="1" parent="1">
          <mxGeometry x="270" y="1260" width="160" height="40" as="geometry" />
        </mxCell>
        <mxCell id="duwEQedwvxj-QTBNqmye-5" value="DC Tachometer (Rectilinear/Rotary)" style="whiteSpace=wrap;html=1;fillColor=#f8cecc;strokeColor=#b85450;fontSize=13;" vertex="1" parent="1">
          <mxGeometry x="460" y="1260" width="120" height="40" as="geometry" />
        </mxCell>
        <mxCell id="duwEQedwvxj-QTBNqmye-6" value="" style="edgeStyle=elbowEdgeStyle;elbow=vertical;html=1;rounded=0;strokeColor=#000000;fontSize=13;" edge="1" parent="1" source="duwEQedwvxj-QTBNqmye-3" target="duwEQedwvxj-QTBNqmye-5">
          <mxGeometry relative="1" as="geometry" />
        </mxCell>
        <mxCell id="duwEQedwvxj-QTBNqmye-7" value="Conductor moves in magnetic field (or vice-versa), Vout ∝ velocity" style="text;html=1;align=left;verticalAlign=middle;resizable=0;points=[];autosize=1;strokeColor=none;fillColor=none;fontSize=13;" vertex="1" parent="1">
          <mxGeometry x="610" y="1265" width="400" height="30" as="geometry" />
        </mxCell>
        <mxCell id="duwEQedwvxj-QTBNqmye-8" value="" style="edgeStyle=elbowEdgeStyle;elbow=vertical;html=1;rounded=0;strokeColor=#000000;fontSize=13;" edge="1" parent="1" source="duwEQedwvxj-QTBNqmye-5" target="duwEQedwvxj-QTBNqmye-7">
          <mxGeometry relative="1" as="geometry" />
        </mxCell>
        <mxCell id="duwEQedwvxj-QTBNqmye-9" value="Derived from Displacement" style="whiteSpace=wrap;html=1;fillColor=#e1d5e7;strokeColor=#9673a6;fontSize=13;" vertex="1" parent="1">
          <mxGeometry x="270" y="1320" width="160" height="40" as="geometry" />
        </mxCell>
        <mxCell id="duwEQedwvxj-QTBNqmye-11" value="Differentiate displacement signal (e.g., from potentiometer, LVDT, capacitive sensor)" style="text;html=1;align=left;verticalAlign=middle;resizable=0;points=[];autosize=1;strokeColor=none;fillColor=none;fontSize=13;" vertex="1" parent="1">
          <mxGeometry x="460" y="1325" width="510" height="30" as="geometry" />
        </mxCell>
        <mxCell id="duwEQedwvxj-QTBNqmye-12" value="" style="edgeStyle=elbowEdgeStyle;elbow=vertical;html=1;rounded=0;strokeColor=#000000;fontSize=13;" edge="1" parent="1" source="duwEQedwvxj-QTBNqmye-9" target="duwEQedwvxj-QTBNqmye-11">
          <mxGeometry relative="1" as="geometry" />
        </mxCell>
        <mxCell id="duwEQedwvxj-QTBNqmye-15" value="Variable Inductance (Mutual)" style="whiteSpace=wrap;html=1;fillColor=#e1d5e7;strokeColor=#9673a6;fontSize=13;" vertex="1" parent="1">
          <mxGeometry x="220" y="1460" width="130" height="40" as="geometry" />
        </mxCell>
        <mxCell id="duwEQedwvxj-QTBNqmye-17" value="Mutual-Induction Proximity Sensor" style="whiteSpace=wrap;html=1;fillColor=#f8cecc;strokeColor=#b85450;fontSize=13;" vertex="1" parent="1">
          <mxGeometry x="380" y="1460" width="200" height="40" as="geometry" />
        </mxCell>
        <mxCell id="duwEQedwvxj-QTBNqmye-18" value="" style="edgeStyle=elbowEdgeStyle;elbow=vertical;html=1;rounded=0;strokeColor=#000000;fontSize=13;" edge="1" parent="1" source="duwEQedwvxj-QTBNqmye-15" target="duwEQedwvxj-QTBNqmye-17">
          <mxGeometry relative="1" as="geometry" />
        </mxCell>
        <mxCell id="duwEQedwvxj-QTBNqmye-19" value="Ferromagnetic target alters mutual inductance between coils" style="text;html=1;align=left;verticalAlign=middle;resizable=0;points=[];autosize=1;strokeColor=none;fillColor=none;fontSize=13;" vertex="1" parent="1">
          <mxGeometry x="610" y="1465" width="370" height="30" as="geometry" />
        </mxCell>
        <mxCell id="duwEQedwvxj-QTBNqmye-20" value="" style="edgeStyle=elbowEdgeStyle;elbow=vertical;html=1;rounded=0;strokeColor=#000000;fontSize=13;" edge="1" parent="1" source="duwEQedwvxj-QTBNqmye-17" target="duwEQedwvxj-QTBNqmye-19">
          <mxGeometry relative="1" as="geometry" />
        </mxCell>
        <mxCell id="duwEQedwvxj-QTBNqmye-21" value="Variable Capacitance" style="whiteSpace=wrap;html=1;fillColor=#e1d5e7;strokeColor=#9673a6;fontSize=13;" vertex="1" parent="1">
          <mxGeometry x="220" y="1400" width="130" height="40" as="geometry" />
        </mxCell>
        <mxCell id="duwEQedwvxj-QTBNqmye-23" value="Capacitive Proximity Sensor" style="whiteSpace=wrap;html=1;fillColor=#f8cecc;strokeColor=#b85450;fontSize=13;" vertex="1" parent="1">
          <mxGeometry x="380" y="1400" width="170" height="40" as="geometry" />
        </mxCell>
        <mxCell id="duwEQedwvxj-QTBNqmye-24" value="" style="edgeStyle=elbowEdgeStyle;elbow=vertical;html=1;rounded=0;strokeColor=#000000;fontSize=13;" edge="1" parent="1" source="duwEQedwvxj-QTBNqmye-21" target="duwEQedwvxj-QTBNqmye-23">
          <mxGeometry relative="1" as="geometry" />
        </mxCell>
        <mxCell id="duwEQedwvxj-QTBNqmye-25" value="Target alters capacitance (dielectric or plate proximity)" style="text;html=1;align=left;verticalAlign=middle;resizable=0;points=[];autosize=1;strokeColor=none;fillColor=none;fontSize=13;" vertex="1" parent="1">
          <mxGeometry x="580" y="1405" width="330" height="30" as="geometry" />
        </mxCell>
        <mxCell id="duwEQedwvxj-QTBNqmye-26" value="" style="edgeStyle=elbowEdgeStyle;elbow=vertical;html=1;rounded=0;strokeColor=#000000;fontSize=13;" edge="1" parent="1" source="duwEQedwvxj-QTBNqmye-23" target="duwEQedwvxj-QTBNqmye-25">
          <mxGeometry relative="1" as="geometry" />
        </mxCell>
        <mxCell id="duwEQedwvxj-QTBNqmye-29" value="Strain Measurement (Piezoresistive)" style="whiteSpace=wrap;html=1;fillColor=#e1d5e7;strokeColor=#9673a6;fontSize=13;" vertex="1" parent="1">
          <mxGeometry x="240" y="1600" width="130" height="40" as="geometry" />
        </mxCell>
        <mxCell id="duwEQedwvxj-QTBNqmye-31" value="Strain Gauge (for Force/Torque)" style="whiteSpace=wrap;html=1;fillColor=#f8cecc;strokeColor=#b85450;fontSize=13;" vertex="1" parent="1">
          <mxGeometry x="400" y="1600" width="190" height="40" as="geometry" />
        </mxCell>
        <mxCell id="duwEQedwvxj-QTBNqmye-32" value="" style="edgeStyle=elbowEdgeStyle;elbow=vertical;html=1;rounded=0;strokeColor=#000000;fontSize=13;" edge="1" parent="1" source="duwEQedwvxj-QTBNqmye-29" target="duwEQedwvxj-QTBNqmye-31">
          <mxGeometry relative="1" as="geometry" />
        </mxCell>
        <mxCell id="duwEQedwvxj-QTBNqmye-33" value="Force/Torque deforms element, strain gauges measure deformation (ΔR)" style="text;html=1;align=left;verticalAlign=middle;resizable=0;points=[];autosize=1;strokeColor=none;fillColor=none;fontSize=13;" vertex="1" parent="1">
          <mxGeometry x="620" y="1605" width="440" height="30" as="geometry" />
        </mxCell>
        <mxCell id="duwEQedwvxj-QTBNqmye-34" value="" style="edgeStyle=elbowEdgeStyle;elbow=vertical;html=1;rounded=0;strokeColor=#000000;fontSize=13;" edge="1" parent="1" source="duwEQedwvxj-QTBNqmye-31" target="duwEQedwvxj-QTBNqmye-33">
          <mxGeometry relative="1" as="geometry" />
        </mxCell>
        <mxCell id="duwEQedwvxj-QTBNqmye-35" value="Piezoelectric Effect" style="whiteSpace=wrap;html=1;fillColor=#e1d5e7;strokeColor=#9673a6;fontSize=13;" vertex="1" parent="1">
          <mxGeometry x="240" y="1540" width="120" height="40" as="geometry" />
        </mxCell>
        <mxCell id="duwEQedwvxj-QTBNqmye-37" value="Piezoelectric Force/Torque Sensor" style="whiteSpace=wrap;html=1;fillColor=#f8cecc;strokeColor=#b85450;fontSize=13;" vertex="1" parent="1">
          <mxGeometry x="400" y="1540" width="210" height="40" as="geometry" />
        </mxCell>
        <mxCell id="duwEQedwvxj-QTBNqmye-38" value="" style="edgeStyle=elbowEdgeStyle;elbow=vertical;html=1;rounded=0;strokeColor=#000000;fontSize=13;" edge="1" parent="1" source="duwEQedwvxj-QTBNqmye-35" target="duwEQedwvxj-QTBNqmye-37">
          <mxGeometry relative="1" as="geometry" />
        </mxCell>
        <mxCell id="duwEQedwvxj-QTBNqmye-39" value="Force/Torque stresses piezoelectric crystal, Vout ∝ force/torque" style="text;html=1;align=left;verticalAlign=middle;resizable=0;points=[];autosize=1;strokeColor=none;fillColor=none;fontSize=13;" vertex="1" parent="1">
          <mxGeometry x="640" y="1550" width="390" height="30" as="geometry" />
        </mxCell>
        <mxCell id="duwEQedwvxj-QTBNqmye-40" value="" style="edgeStyle=elbowEdgeStyle;elbow=vertical;html=1;rounded=0;strokeColor=#000000;fontSize=13;" edge="1" parent="1" source="duwEQedwvxj-QTBNqmye-37" target="duwEQedwvxj-QTBNqmye-39">
          <mxGeometry relative="1" as="geometry" />
        </mxCell>
        <mxCell id="duwEQedwvxj-QTBNqmye-43" value="Piezoelectric Effect" style="whiteSpace=wrap;html=1;fillColor=#e1d5e7;strokeColor=#9673a6;fontSize=13;" vertex="1" parent="1">
          <mxGeometry x="240" y="1740" width="120" height="40" as="geometry" />
        </mxCell>
        <mxCell id="duwEQedwvxj-QTBNqmye-45" value="Piezoelectric Accelerometer" style="whiteSpace=wrap;html=1;fillColor=#f8cecc;strokeColor=#b85450;fontSize=13;" vertex="1" parent="1">
          <mxGeometry x="390" y="1740" width="170" height="40" as="geometry" />
        </mxCell>
        <mxCell id="duwEQedwvxj-QTBNqmye-46" value="" style="edgeStyle=elbowEdgeStyle;elbow=vertical;html=1;rounded=0;strokeColor=#000000;fontSize=13;" edge="1" parent="1" source="duwEQedwvxj-QTBNqmye-43" target="duwEQedwvxj-QTBNqmye-45">
          <mxGeometry relative="1" as="geometry" />
        </mxCell>
        <mxCell id="duwEQedwvxj-QTBNqmye-47" value="Inertial mass stresses piezoelectric crystal, Vout ∝ acceleration" style="text;html=1;align=left;verticalAlign=middle;resizable=0;points=[];autosize=1;strokeColor=none;fillColor=none;fontSize=13;" vertex="1" parent="1">
          <mxGeometry x="590" y="1745" width="390" height="30" as="geometry" />
        </mxCell>
        <mxCell id="duwEQedwvxj-QTBNqmye-48" value="" style="edgeStyle=elbowEdgeStyle;elbow=vertical;html=1;rounded=0;strokeColor=#000000;fontSize=13;" edge="1" parent="1" source="duwEQedwvxj-QTBNqmye-45" target="duwEQedwvxj-QTBNqmye-47">
          <mxGeometry relative="1" as="geometry" />
        </mxCell>
        <mxCell id="duwEQedwvxj-QTBNqmye-49" value="Strain Measurement" style="whiteSpace=wrap;html=1;fillColor=#e1d5e7;strokeColor=#9673a6;fontSize=13;" vertex="1" parent="1">
          <mxGeometry x="240" y="1680" width="120" height="40" as="geometry" />
        </mxCell>
        <mxCell id="duwEQedwvxj-QTBNqmye-51" value="Strain Gauge Accelerometer" style="whiteSpace=wrap;html=1;fillColor=#f8cecc;strokeColor=#b85450;fontSize=13;" vertex="1" parent="1">
          <mxGeometry x="390" y="1680" width="170" height="40" as="geometry" />
        </mxCell>
        <mxCell id="duwEQedwvxj-QTBNqmye-52" value="" style="edgeStyle=elbowEdgeStyle;elbow=vertical;html=1;rounded=0;strokeColor=#000000;fontSize=13;" edge="1" parent="1" source="duwEQedwvxj-QTBNqmye-49" target="duwEQedwvxj-QTBNqmye-51">
          <mxGeometry relative="1" as="geometry" />
        </mxCell>
        <mxCell id="duwEQedwvxj-QTBNqmye-53" value="Inertial mass strains a beam with strain gauges, ΔR ∝ acceleration" style="text;html=1;align=left;verticalAlign=middle;resizable=0;points=[];autosize=1;strokeColor=none;fillColor=none;fontSize=13;" vertex="1" parent="1">
          <mxGeometry x="590" y="1685" width="410" height="30" as="geometry" />
        </mxCell>
        <mxCell id="duwEQedwvxj-QTBNqmye-54" value="" style="edgeStyle=elbowEdgeStyle;elbow=vertical;html=1;rounded=0;strokeColor=#000000;fontSize=13;" edge="1" parent="1" source="duwEQedwvxj-QTBNqmye-51" target="duwEQedwvxj-QTBNqmye-53">
          <mxGeometry relative="1" as="geometry" />
        </mxCell>
        <mxCell id="duwEQedwvxj-QTBNqmye-57" value="" style="endArrow=classic;html=1;rounded=0;entryX=0;entryY=0.5;entryDx=0;entryDy=0;exitX=1;exitY=0.5;exitDx=0;exitDy=0;" edge="1" parent="1" source="jwKDQQEzBjQrpnpor33--132" target="V3AHljOZftXMfCnjsO7J-6">
          <mxGeometry width="50" height="50" relative="1" as="geometry">
            <mxPoint x="432.5" y="1130" as="sourcePoint" />
            <mxPoint x="482.5" y="1080" as="targetPoint" />
          </mxGeometry>
        </mxCell>
        <mxCell id="duwEQedwvxj-QTBNqmye-58" value="" style="endArrow=classic;html=1;rounded=0;entryX=0;entryY=0.5;entryDx=0;entryDy=0;exitX=1;exitY=0.5;exitDx=0;exitDy=0;" edge="1" parent="1" source="jwKDQQEzBjQrpnpor33--132" target="V3AHljOZftXMfCnjsO7J-5">
          <mxGeometry width="50" height="50" relative="1" as="geometry">
            <mxPoint x="410" y="1090" as="sourcePoint" />
            <mxPoint x="540" y="1160" as="targetPoint" />
          </mxGeometry>
        </mxCell>
        <mxCell id="duwEQedwvxj-QTBNqmye-59" value="" style="endArrow=classic;html=1;rounded=0;entryX=0;entryY=0.5;entryDx=0;entryDy=0;exitX=1;exitY=0.5;exitDx=0;exitDy=0;" edge="1" parent="1" source="jwKDQQEzBjQrpnpor33--132" target="V3AHljOZftXMfCnjsO7J-4">
          <mxGeometry width="50" height="50" relative="1" as="geometry">
            <mxPoint x="420" y="1100" as="sourcePoint" />
            <mxPoint x="550" y="1170" as="targetPoint" />
          </mxGeometry>
        </mxCell>
        <mxCell id="duwEQedwvxj-QTBNqmye-68" value="" style="endArrow=classic;html=1;rounded=0;entryX=0;entryY=0.5;entryDx=0;entryDy=0;exitX=1;exitY=0.5;exitDx=0;exitDy=0;" edge="1" parent="1" source="jwKDQQEzBjQrpnpor33--107" target="jwKDQQEzBjQrpnpor33--133">
          <mxGeometry width="50" height="50" relative="1" as="geometry">
            <mxPoint x="220" y="1175" as="sourcePoint" />
            <mxPoint x="270" y="1125" as="targetPoint" />
          </mxGeometry>
        </mxCell>
        <mxCell id="duwEQedwvxj-QTBNqmye-69" value="" style="endArrow=classic;html=1;rounded=0;entryX=0;entryY=0.5;entryDx=0;entryDy=0;exitX=1;exitY=0.5;exitDx=0;exitDy=0;" edge="1" parent="1" source="jwKDQQEzBjQrpnpor33--107" target="jwKDQQEzBjQrpnpor33--132">
          <mxGeometry width="50" height="50" relative="1" as="geometry">
            <mxPoint x="430" y="1110" as="sourcePoint" />
            <mxPoint x="560" y="1180" as="targetPoint" />
          </mxGeometry>
        </mxCell>
        <mxCell id="duwEQedwvxj-QTBNqmye-70" value="" style="endArrow=classic;html=1;rounded=0;entryX=0;entryY=0.5;entryDx=0;entryDy=0;exitX=1;exitY=0.5;exitDx=0;exitDy=0;" edge="1" parent="1" source="jwKDQQEzBjQrpnpor33--107" target="jwKDQQEzBjQrpnpor33--131">
          <mxGeometry width="50" height="50" relative="1" as="geometry">
            <mxPoint x="440" y="1120" as="sourcePoint" />
            <mxPoint x="570" y="1190" as="targetPoint" />
          </mxGeometry>
        </mxCell>
        <mxCell id="duwEQedwvxj-QTBNqmye-71" style="edgeStyle=orthogonalEdgeStyle;rounded=0;orthogonalLoop=1;jettySize=auto;html=1;entryX=0.001;entryY=0.483;entryDx=0;entryDy=0;entryPerimeter=0;" edge="1" parent="1" source="V3AHljOZftXMfCnjsO7J-7" target="duwEQedwvxj-QTBNqmye-1">
          <mxGeometry relative="1" as="geometry" />
        </mxCell>
        <mxCell id="duwEQedwvxj-QTBNqmye-73" value="" style="endArrow=classic;html=1;rounded=0;entryX=0;entryY=0.5;entryDx=0;entryDy=0;exitX=1;exitY=0.5;exitDx=0;exitDy=0;" edge="1" parent="1" source="jwKDQQEzBjQrpnpor33--108" target="duwEQedwvxj-QTBNqmye-3">
          <mxGeometry width="50" height="50" relative="1" as="geometry">
            <mxPoint x="250" y="1330" as="sourcePoint" />
            <mxPoint x="300" y="1280" as="targetPoint" />
          </mxGeometry>
        </mxCell>
        <mxCell id="duwEQedwvxj-QTBNqmye-74" value="" style="endArrow=classic;html=1;rounded=0;entryX=0;entryY=0.5;entryDx=0;entryDy=0;exitX=1;exitY=0.5;exitDx=0;exitDy=0;" edge="1" parent="1" source="jwKDQQEzBjQrpnpor33--108" target="duwEQedwvxj-QTBNqmye-9">
          <mxGeometry width="50" height="50" relative="1" as="geometry">
            <mxPoint x="245" y="1320" as="sourcePoint" />
            <mxPoint x="370" y="1290" as="targetPoint" />
          </mxGeometry>
        </mxCell>
        <mxCell id="duwEQedwvxj-QTBNqmye-75" value="" style="endArrow=classic;html=1;rounded=0;entryX=0;entryY=0.5;entryDx=0;entryDy=0;exitX=1;exitY=0.5;exitDx=0;exitDy=0;" edge="1" parent="1" source="jwKDQQEzBjQrpnpor33--111" target="duwEQedwvxj-QTBNqmye-21">
          <mxGeometry width="50" height="50" relative="1" as="geometry">
            <mxPoint x="215" y="1460" as="sourcePoint" />
            <mxPoint x="265" y="1410" as="targetPoint" />
          </mxGeometry>
        </mxCell>
        <mxCell id="duwEQedwvxj-QTBNqmye-76" value="" style="endArrow=classic;html=1;rounded=0;entryX=0;entryY=0.5;entryDx=0;entryDy=0;" edge="1" parent="1" target="duwEQedwvxj-QTBNqmye-15">
          <mxGeometry width="50" height="50" relative="1" as="geometry">
            <mxPoint x="190" y="1450" as="sourcePoint" />
            <mxPoint x="405" y="1430" as="targetPoint" />
          </mxGeometry>
        </mxCell>
        <mxCell id="duwEQedwvxj-QTBNqmye-77" value="" style="endArrow=classic;html=1;rounded=0;entryX=0;entryY=0.5;entryDx=0;entryDy=0;exitX=1;exitY=0.5;exitDx=0;exitDy=0;" edge="1" parent="1" source="jwKDQQEzBjQrpnpor33--112" target="duwEQedwvxj-QTBNqmye-35">
          <mxGeometry width="50" height="50" relative="1" as="geometry">
            <mxPoint x="260" y="1600" as="sourcePoint" />
            <mxPoint x="310" y="1550" as="targetPoint" />
          </mxGeometry>
        </mxCell>
        <mxCell id="duwEQedwvxj-QTBNqmye-78" value="" style="endArrow=classic;html=1;rounded=0;entryX=0;entryY=0.5;entryDx=0;entryDy=0;exitX=1;exitY=0.5;exitDx=0;exitDy=0;" edge="1" parent="1" source="jwKDQQEzBjQrpnpor33--112" target="duwEQedwvxj-QTBNqmye-29">
          <mxGeometry width="50" height="50" relative="1" as="geometry">
            <mxPoint x="220" y="1600" as="sourcePoint" />
            <mxPoint x="345" y="1570" as="targetPoint" />
          </mxGeometry>
        </mxCell>
        <mxCell id="duwEQedwvxj-QTBNqmye-80" value="" style="endArrow=classic;html=1;rounded=0;entryX=0;entryY=0.5;entryDx=0;entryDy=0;exitX=1;exitY=0.5;exitDx=0;exitDy=0;" edge="1" parent="1" source="jwKDQQEzBjQrpnpor33--109" target="duwEQedwvxj-QTBNqmye-49">
          <mxGeometry width="50" height="50" relative="1" as="geometry">
            <mxPoint x="260" y="1740" as="sourcePoint" />
            <mxPoint x="310" y="1690" as="targetPoint" />
          </mxGeometry>
        </mxCell>
        <mxCell id="duwEQedwvxj-QTBNqmye-81" value="" style="endArrow=classic;html=1;rounded=0;entryX=0;entryY=0.5;entryDx=0;entryDy=0;exitX=1;exitY=0.5;exitDx=0;exitDy=0;" edge="1" parent="1" source="jwKDQQEzBjQrpnpor33--109" target="duwEQedwvxj-QTBNqmye-43">
          <mxGeometry width="50" height="50" relative="1" as="geometry">
            <mxPoint x="220" y="1740" as="sourcePoint" />
            <mxPoint x="390" y="1710" as="targetPoint" />
          </mxGeometry>
        </mxCell>
        <mxCell id="duwEQedwvxj-QTBNqmye-82" value="" style="endArrow=classic;html=1;rounded=0;entryX=0;entryY=0.5;entryDx=0;entryDy=0;exitX=1;exitY=0.5;exitDx=0;exitDy=0;" edge="1" parent="1" source="jwKDQQEzBjQrpnpor33--106" target="jwKDQQEzBjQrpnpor33--111">
          <mxGeometry width="50" height="50" relative="1" as="geometry">
            <mxPoint x="30" y="1530" as="sourcePoint" />
            <mxPoint x="80" y="1480" as="targetPoint" />
          </mxGeometry>
        </mxCell>
        <mxCell id="duwEQedwvxj-QTBNqmye-83" value="" style="endArrow=classic;html=1;rounded=0;exitX=1;exitY=0.5;exitDx=0;exitDy=0;" edge="1" parent="1" source="jwKDQQEzBjQrpnpor33--106">
          <mxGeometry width="50" height="50" relative="1" as="geometry">
            <mxPoint x="-50" y="1550" as="sourcePoint" />
            <mxPoint x="120" y="1590" as="targetPoint" />
          </mxGeometry>
        </mxCell>
        <mxCell id="duwEQedwvxj-QTBNqmye-84" value="" style="endArrow=classic;html=1;rounded=0;entryX=0;entryY=0.5;entryDx=0;entryDy=0;exitX=1;exitY=0.5;exitDx=0;exitDy=0;" edge="1" parent="1" source="jwKDQQEzBjQrpnpor33--106" target="jwKDQQEzBjQrpnpor33--109">
          <mxGeometry width="50" height="50" relative="1" as="geometry">
            <mxPoint x="-40" y="1605" as="sourcePoint" />
            <mxPoint x="130" y="1575" as="targetPoint" />
          </mxGeometry>
        </mxCell>
        <mxCell id="duwEQedwvxj-QTBNqmye-85" value="" style="endArrow=classic;html=1;rounded=0;entryX=0;entryY=0.5;entryDx=0;entryDy=0;exitX=1;exitY=0.5;exitDx=0;exitDy=0;" edge="1" parent="1" source="jwKDQQEzBjQrpnpor33--106" target="jwKDQQEzBjQrpnpor33--108">
          <mxGeometry width="50" height="50" relative="1" as="geometry">
            <mxPoint x="-70" y="1360" as="sourcePoint" />
            <mxPoint x="100" y="1330" as="targetPoint" />
          </mxGeometry>
        </mxCell>
        <mxCell id="duwEQedwvxj-QTBNqmye-86" value="" style="endArrow=classic;html=1;rounded=0;entryX=0;entryY=0.5;entryDx=0;entryDy=0;exitX=1;exitY=0.5;exitDx=0;exitDy=0;" edge="1" parent="1" source="jwKDQQEzBjQrpnpor33--106" target="jwKDQQEzBjQrpnpor33--107">
          <mxGeometry width="50" height="50" relative="1" as="geometry">
            <mxPoint x="-80" y="1310" as="sourcePoint" />
            <mxPoint x="90" y="1280" as="targetPoint" />
          </mxGeometry>
        </mxCell>
      </root>
    </mxGraphModel>
  </diagram>
</mxfile>
